<svg width="49" height="48" viewBox="0 0 49 48" fill="none" xmlns="http://www.w3.org/2000/svg">
<g id="blockquote 1" clip-path="url(#clip0_25_584)">
<g id="Group">
<g id="Group_2">
<path id="Vector" d="M37.9639 42C40.8812 42 43.6791 40.8411 45.742 38.7782C47.8049 36.7153 48.9639 33.9174 48.9639 31C48.9639 28.0826 47.8049 25.2847 45.742 23.2218C43.6791 21.1589 40.8812 20 37.9639 20C37.6469 20 37.3359 20.021 37.0259 20.048C37.5711 15.2364 39.2081 10.6128 41.8119 6.53C41.9065 6.37863 41.9588 6.20469 41.9635 6.02625C41.9682 5.84781 41.925 5.67136 41.8385 5.51523C41.752 5.3591 41.6252 5.22898 41.4714 5.13838C41.3176 5.04778 41.1424 5 40.9639 5H38.9639C38.8282 4.99997 38.694 5.02752 38.5694 5.08099C38.4448 5.13445 38.3323 5.21271 38.2389 5.311C33.0959 10.721 26.9639 19.569 26.9639 31C26.9673 33.9163 28.1273 36.7122 30.1895 38.7744C32.2516 40.8365 35.0475 41.9966 37.9639 42Z" fill="url(#paint0_linear_25_584)"/>
<path id="Vector_2" d="M11.9639 42C14.8812 42 17.6791 40.8411 19.742 38.7782C21.8049 36.7153 22.9639 33.9174 22.9639 31C22.9639 28.0826 21.8049 25.2847 19.742 23.2218C17.6791 21.1589 14.8812 20 11.9639 20C11.6469 20 11.3359 20.021 11.0259 20.048C11.5711 15.2364 13.2081 10.6128 15.8119 6.53C15.9065 6.37863 15.9588 6.20469 15.9635 6.02625C15.9682 5.84781 15.925 5.67136 15.8385 5.51523C15.752 5.3591 15.6252 5.22898 15.4714 5.13838C15.3176 5.04778 15.1424 5 14.9639 5H12.9639C12.8282 4.99997 12.694 5.02752 12.5694 5.08099C12.4448 5.13445 12.3323 5.21271 12.2389 5.311C7.09587 10.721 0.963867 19.569 0.963867 31C0.967308 33.9163 2.12734 36.7122 4.18949 38.7744C6.25165 40.8365 9.04754 41.9966 11.9639 42Z" fill="url(#paint1_linear_25_584)"/>
</g>
</g>
</g>
<defs>
<linearGradient id="paint0_linear_25_584" x1="37.9655" y1="42.0076" x2="37.9655" y2="4.98818" gradientUnits="userSpaceOnUse">
<stop stop-color="#92C83E"/>
<stop offset="0.1548" stop-color="#8EC63E"/>
<stop offset="0.2721" stop-color="#83C13F"/>
<stop offset="0.3769" stop-color="#70B941"/>
<stop offset="0.4745" stop-color="#52B044"/>
<stop offset="0.5672" stop-color="#0CA546"/>
<stop offset="0.6549" stop-color="#009948"/>
<stop offset="0.6873" stop-color="#009549"/>
<stop offset="0.7629" stop-color="#008742"/>
<stop offset="0.925" stop-color="#00632D"/>
<stop offset="1" stop-color="#005221"/>
</linearGradient>
<linearGradient id="paint1_linear_25_584" x1="11.9655" y1="42.0076" x2="11.9655" y2="4.98818" gradientUnits="userSpaceOnUse">
<stop stop-color="#92C83E"/>
<stop offset="0.1548" stop-color="#8EC63E"/>
<stop offset="0.2721" stop-color="#83C13F"/>
<stop offset="0.3769" stop-color="#70B941"/>
<stop offset="0.4745" stop-color="#52B044"/>
<stop offset="0.5672" stop-color="#0CA546"/>
<stop offset="0.6549" stop-color="#009948"/>
<stop offset="0.6873" stop-color="#009549"/>
<stop offset="0.7629" stop-color="#008742"/>
<stop offset="0.925" stop-color="#00632D"/>
<stop offset="1" stop-color="#005221"/>
</linearGradient>
<clipPath id="clip0_25_584">
<rect width="48" height="48" fill="white" transform="matrix(-1 0 0 -1 48.9639 48)"/>
</clipPath>
</defs>
</svg>
