<svg width="52" height="52" viewBox="0 0 52 52" fill="none" xmlns="http://www.w3.org/2000/svg">
<path id="Vector" d="M8.62371 48.1503C9.83262 47.2264 11.1595 46.1747 12.5748 44.9953C12.1423 46.2828 11.0415 47.5311 8.62371 48.1503ZM18.0886 46.4499C18.0886 46.4499 18.0886 47.8357 16.8502 48.3763H18.2164C18.8847 48.0028 18.6881 46.8725 18.0886 46.4499ZM11.4642 48.3665H12.5551C12.8205 48.2289 13.0662 47.5606 12.6338 47.1674C12.6338 47.1674 12.4372 47.9439 11.4642 48.3665ZM30.6495 28.1787C31.4358 28.4146 32.1827 28.6799 32.8904 28.9846C33.0673 28.8962 33.942 28.4244 34.1779 28.3163C35.3868 27.6283 36.5466 26.7732 37.5 25.7412C37.5294 25.7019 37.5589 25.6724 37.5884 25.6331C38.699 24.2767 39.4067 22.7238 39.7212 20.9743C39.8981 19.9718 39.9178 19.048 39.79 18.2027C37.3918 21.053 34.2565 24.4831 30.6495 28.1787ZM51.5253 3.48937C51.2599 4.22651 50.8471 4.85554 50.2869 5.37645C49.7267 5.89736 48.7831 6.59519 47.4366 7.45027C46.4734 8.05964 45.8444 8.51176 45.5594 8.79678C45.2645 9.08181 45.0385 9.42581 44.8714 9.81895H49.4122L48.6259 11.9812L43.7804 11.9714L44.2915 10.674C42.5518 13.9371 36.5761 21.1218 29.873 27.9624H29.8632L29.1654 28.6701H29.1752C28.6641 29.1812 28.153 29.7021 27.6321 30.223C26.7279 31.1174 25.8138 32.0216 24.8703 32.9357C24.5656 33.2305 23.9661 33.8006 23.2879 34.4394C22.7473 34.4394 22.138 34.4296 21.5089 34.4296C21.4106 34.4296 21.7055 35.4714 21.6072 35.4714C20.6538 34.1249 20.2607 33.0438 20.4868 31.0584C19.6022 31.54 19.1108 32.975 19.0911 34.41C17.1647 34.4001 15.5528 34.3903 15.5528 34.3903L18.8847 35.5992L17.4596 39.3832C17.4596 39.3832 17.4792 39.5208 18.1181 40.1007C18.7569 40.6806 18.9928 40.7789 18.9928 40.7789C19.8184 40.7789 20.8308 40.7887 21.7645 40.7887C22.0692 40.7887 21.7743 39.5994 21.8922 39.5994C22.4819 40.9754 22.4328 43.2556 22.138 44.5628C22.138 44.5628 23.5827 43.0591 23.9267 40.7789C24.6639 40.7789 25.2339 40.7789 25.46 40.7789C25.7745 40.7789 26.0694 40.7395 26.3446 40.6707C25.2536 43.0787 23.2879 45.7718 19.7988 48.1404C20.8406 46.7841 21.3418 45.015 20.4671 43.1868C20.3688 42.9805 20.2607 42.7839 20.1526 42.607C19.3663 41.5062 18.5309 41.0049 17.7839 40.3857C17.0075 39.7272 16.231 38.8328 16.0148 37.6337C16.0148 37.6337 15.4251 38.4593 15.8084 40.4742C15.8477 40.6904 15.9067 40.9263 15.9656 41.172C15.543 41.5455 15.0123 42.0074 14.5995 42.3612C14.5307 42.4202 14.7567 42.7446 14.8747 43.0591C15.3071 42.6856 15.7494 42.3023 16.1917 41.919C16.3195 42.2826 16.4669 42.6758 16.6536 43.0984C17.7249 45.5359 15.7691 47.1477 14.1179 48.0225C14.855 47.2264 15.3563 45.3196 14.8255 43.58C14.8255 43.5702 14.8255 43.5702 14.8157 43.5603C14.7764 43.4424 14.7371 43.3343 14.6977 43.2163C14.4717 42.6758 14.1179 42.1745 13.9999 42.0369C13.9508 41.9779 13.9016 41.9288 13.8525 41.8698C13.8427 41.86 13.8328 41.8502 13.823 41.8403C13.7739 41.7912 13.7247 41.7421 13.6756 41.6929C13.6657 41.6831 13.6657 41.6831 13.6559 41.6733C13.3021 41.3293 12.8598 41.0246 12.3291 40.7789C12.3291 40.7789 12.5846 41.3587 12.732 42.1942C12.732 42.204 12.732 42.2138 12.7419 42.2236C12.7517 42.263 12.7615 42.3121 12.7615 42.3514C12.7615 42.3711 12.7714 42.3907 12.7714 42.4104C12.7812 42.4497 12.7812 42.4988 12.791 42.5382C12.791 42.5578 12.8008 42.5873 12.8008 42.607C12.8107 42.6463 12.8107 42.6954 12.8107 42.7347C12.8107 42.7544 12.8107 42.774 12.8205 42.7839C12.8205 42.833 12.8303 42.892 12.8303 42.9411C12.8303 42.9608 12.8303 42.9706 12.8303 42.9903C12.8303 43.0001 12.8303 43.0001 12.8303 43.0099C12.85 43.2851 12.85 43.5702 12.8205 43.865C6.43194 49.2412 1.75356 52.3569 0.947618 51.5215C0.348077 50.9023 2.01893 48.1896 5.23286 44.2778C3.35561 46.6956 1.95013 48.681 3.01161 48.8776C4.64315 49.1921 6.95286 46.8725 8.64337 45.7619L6.11743 47.1478L8.16177 41.7322C8.22074 40.6707 5.73412 41.1327 5.73412 41.1327C5.73412 41.1327 6.44177 39.2947 9.02668 39.4618L11.4347 33.0831L11.6411 32.5524C11.6411 32.5524 14.6289 33.9185 14.6289 31.599C14.6289 29.4957 8.48611 29.2107 8.48611 29.2107C9.30188 28.9846 11.4838 27.4612 14.5208 28.444C11.8278 26.9894 10.2552 25.0434 9.70485 22.4191C9.70485 22.4191 13.1448 26.7634 22.2068 27.3727C24.2019 27.5103 26.0595 27.7954 27.75 28.2278L27.7599 28.218C27.7795 28.2278 27.7992 28.2278 27.8189 28.2376L28.4184 27.6283C28.3987 27.6283 28.3791 27.6184 28.3594 27.6184C28.3692 27.6086 28.3692 27.6086 28.3791 27.5988C26.6787 27.2351 24.8801 26.9992 23.0422 26.8715C20.9389 26.7339 19.1697 26.4292 17.6856 26.0459C15.4644 23.7853 15.5332 21.0137 15.5332 21.0137C15.5332 21.0137 14.2063 22.999 14.6191 25.004C14.1473 24.7976 13.7346 24.5912 13.3611 24.3848L16.4767 15.2443L18.0493 15.1165L11.0907 12.6594H27.5928C30.217 12.6594 32.1827 12.7577 33.4997 12.9641C34.8168 13.1607 36.006 13.5833 37.0773 14.2221C37.6965 14.5858 38.0897 14.9003 38.3649 15.49C38.6302 16.0601 38.2076 16.3942 37.1166 18.4288C38.7089 16.3844 41.225 13.3277 41.4707 12.0009H41.451L41.4805 11.9026C41.5002 11.6962 41.4609 11.5389 41.3331 11.4505C40.881 11.1065 39.2986 11.9026 36.8218 13.7111C39.0234 12.0205 40.8515 10.792 42.1489 10.1138C42.5125 9.2489 42.9253 8.5609 43.4069 8.03998C43.977 7.42079 45.0286 6.61485 46.5815 5.62217C47.3187 5.1504 47.8101 4.78674 48.0656 4.55085C48.3212 4.31497 48.4981 4.06926 48.5866 3.80389C48.7143 3.46972 48.6848 3.18469 48.4981 2.9488C48.3212 2.71292 48.0165 2.6048 47.584 2.6048C46.955 2.6048 46.1196 2.90949 45.0679 3.51886L45.9918 0.992923C47.2007 0.560467 48.2229 0.344238 49.0583 0.344238C50.1395 0.344238 50.9061 0.639094 51.3582 1.21898C51.8103 1.79886 51.8595 2.55566 51.5253 3.48937ZM29.2931 17.8784C28.4479 17.8784 19.386 17.8194 19.386 17.8194L22.7178 19.0283L20.7816 24.2079C20.7816 24.2079 28.2906 24.2079 29.2931 24.2079C30.8854 24.2079 32.0156 23.2939 32.4874 20.6303C32.9887 17.8292 30.1384 17.8784 29.2931 17.8784ZM24.3199 48.4058L26.895 48.3861C27.3962 47.8456 28.1334 46.9413 27.0621 45.359C27.0621 45.3491 26.836 47.0593 24.3199 48.4058ZM29.9123 28.9256C28.4577 30.3999 26.9343 31.9135 25.3421 33.4468C24.9882 33.7908 24.6442 34.1249 24.2904 34.4591C24.8605 34.4591 25.2733 34.4591 25.4305 34.4591C25.8728 34.4591 26.8753 34.4493 27.6518 34.8424C27.8582 34.3313 27.3569 33.5057 27.3569 33.5057C29.8239 34.7441 31.0623 37.9875 31.023 39.9139C30.9836 41.9878 29.7944 43.2163 29.7944 43.2163C29.7944 43.2163 31.2588 42.3416 31.4456 40.5725C32.1139 42.9116 31.1409 46.391 29.3718 47.7866C33.9027 46.4794 37.156 42.9215 36.8316 37.0047C36.6351 33.1519 33.9912 30.4785 29.9123 28.9256Z" fill="url(#paint0_linear_25_1755)"/>
<defs>
<linearGradient id="paint0_linear_25_1755" x1="26.281" y1="0.333692" x2="26.281" y2="51.6724" gradientUnits="userSpaceOnUse">
<stop stop-color="#92C83E"/>
<stop offset="0.1548" stop-color="#8EC63E"/>
<stop offset="0.2721" stop-color="#83C13F"/>
<stop offset="0.3769" stop-color="#70B941"/>
<stop offset="0.4745" stop-color="#52B044"/>
<stop offset="0.5672" stop-color="#0CA546"/>
<stop offset="0.6549" stop-color="#009948"/>
<stop offset="0.6873" stop-color="#009549"/>
<stop offset="0.7629" stop-color="#008742"/>
<stop offset="0.925" stop-color="#00632D"/>
<stop offset="1" stop-color="#005221"/>
</linearGradient>
</defs>
</svg>
