<svg width="160" height="162" viewBox="0 0 160 162" fill="none" xmlns="http://www.w3.org/2000/svg">
<path id="Vector" d="M24.5006 150.606C28.2996 147.703 32.4692 144.398 36.9168 140.692C35.5578 144.738 32.0986 148.661 24.5006 150.606ZM54.2439 145.263C54.2439 145.263 54.2439 149.618 50.3523 151.317H54.6454C56.7457 150.143 56.128 146.591 54.2439 145.263ZM33.4267 151.286H36.855C37.689 150.854 38.4611 148.753 37.1021 147.518C37.1021 147.518 36.4844 149.958 33.4267 151.286ZM93.7163 87.8459C96.1872 88.5871 98.5346 89.4211 100.758 90.3785C101.314 90.1006 104.063 88.618 104.804 88.2783C108.603 86.1163 112.248 83.4292 115.244 80.1861C115.337 80.0626 115.429 79.9699 115.522 79.8464C119.012 75.5841 121.236 70.7041 122.224 65.2064C122.78 62.056 122.842 59.1527 122.44 56.4965C114.904 65.4535 105.052 76.2327 93.7163 87.8459ZM159.318 10.26C158.484 12.5765 157.187 14.5532 155.427 16.1901C153.666 17.8271 150.701 20.02 146.47 22.7071C143.443 24.622 141.466 26.0428 140.571 26.9385C139.644 27.8342 138.934 28.9152 138.409 30.1507H152.678L150.207 36.9456L134.98 36.9147L136.586 32.8378C131.119 43.0919 112.341 65.6697 91.2763 87.1664H91.2455L89.0525 89.3902H89.0834C87.4774 90.9963 85.8713 92.6332 84.2343 94.2702C81.3928 97.0808 78.5204 99.9223 75.5553 102.795C74.5978 103.721 72.7138 105.513 70.5827 107.52C68.8839 107.52 66.969 107.489 64.9923 107.489C64.6834 107.489 65.61 110.763 65.3011 110.763C62.3052 106.532 61.0697 103.134 61.7801 96.8955C59.0004 98.4089 57.4561 102.918 57.3943 107.428C51.3406 107.397 46.2753 107.366 46.2753 107.366L56.7457 111.165L52.2672 123.056C52.2672 123.056 52.329 123.488 54.3366 125.311C56.3442 127.133 57.0854 127.442 57.0854 127.442C59.6799 127.442 62.8611 127.473 65.7953 127.473C66.7528 127.473 65.8262 123.736 66.1968 123.736C68.05 128.06 67.8956 135.225 66.969 139.333C66.969 139.333 71.5092 134.607 72.5903 127.442C74.9067 127.442 76.6981 127.442 77.4085 127.442C78.3968 127.442 79.3234 127.318 80.1882 127.102C76.7599 134.669 70.5827 143.132 59.6181 150.576C62.892 146.313 64.4672 140.754 61.7183 135.009C61.4095 134.36 61.0697 133.743 60.73 133.187C58.2591 129.727 55.6338 128.152 53.2864 126.206C50.8464 124.137 48.4064 121.326 47.7269 117.558C47.7269 117.558 45.8738 120.153 47.0783 126.484C47.2019 127.164 47.3872 127.905 47.5725 128.677C46.2444 129.851 44.5766 131.303 43.2794 132.415C43.0632 132.6 43.7735 133.619 44.1442 134.607C45.5031 133.434 46.893 132.229 48.2829 131.025C48.6844 132.167 49.1477 133.403 49.7345 134.731C53.1011 142.391 46.9548 147.456 41.7659 150.205C44.0824 147.703 45.6576 141.711 43.9897 136.244C43.9897 136.214 43.9897 136.214 43.9588 136.183C43.8353 135.812 43.7118 135.472 43.5882 135.102C42.8778 133.403 41.7659 131.828 41.3953 131.395C41.2409 131.21 41.0864 131.056 40.932 130.87C40.9011 130.839 40.8702 130.808 40.8393 130.778C40.6849 130.623 40.5305 130.469 40.3761 130.314C40.3452 130.283 40.3452 130.283 40.3143 130.252C39.2024 129.171 37.8125 128.214 36.1447 127.442C36.1447 127.442 36.9477 129.264 37.411 131.889C37.411 131.92 37.411 131.951 37.4419 131.982C37.4728 132.106 37.5037 132.26 37.5037 132.384C37.5037 132.445 37.5345 132.507 37.5345 132.569C37.5654 132.692 37.5654 132.847 37.5963 132.97C37.5963 133.032 37.6272 133.125 37.6272 133.187C37.6581 133.31 37.6581 133.465 37.6581 133.588C37.6581 133.65 37.6581 133.712 37.689 133.743C37.689 133.897 37.7199 134.082 37.7199 134.237C37.7199 134.299 37.7199 134.329 37.7199 134.391C37.7199 134.422 37.7199 134.422 37.7199 134.453C37.7816 135.318 37.7816 136.213 37.689 137.14C17.613 154.035 2.91123 163.826 0.378575 161.2C-1.50548 159.255 3.74516 150.73 13.8449 138.437C7.94566 146.035 3.52895 152.274 6.86465 152.892C11.9917 153.88 19.25 146.591 24.5624 143.101L16.6247 147.456L23.049 130.438C23.2343 127.102 15.4201 128.554 15.4201 128.554C15.4201 128.554 17.6439 122.778 25.7669 123.303L33.334 103.258L33.9826 101.59C33.9826 101.59 43.372 105.883 43.372 98.5942C43.372 91.9846 24.0682 91.0889 24.0682 91.0889C26.6318 90.3785 33.4885 85.5912 43.0323 88.6798C34.5695 84.1087 29.6277 77.9932 27.8981 69.7466C27.8981 69.7466 38.7082 83.3983 67.1852 85.3132C73.4551 85.7456 79.2925 86.6413 84.6049 88.0003L84.6358 87.9694C84.6976 88.0003 84.7594 88.0003 84.8212 88.0312L86.7052 86.1163C86.6434 86.1163 86.5817 86.0854 86.5199 86.0854C86.5508 86.0545 86.5508 86.0545 86.5817 86.0236C81.2384 84.8808 75.5862 84.1395 69.8105 83.738C63.2009 83.3056 57.6414 82.3482 52.9776 81.1436C45.9973 74.0398 46.2135 65.3299 46.2135 65.3299C46.2135 65.3299 42.0439 71.5689 43.3411 77.8697C41.8586 77.2211 40.5614 76.5725 39.3877 75.9238L49.1786 47.1998L54.1204 46.7983L32.253 39.0767H84.1108C92.3574 39.0767 98.5346 39.3856 102.673 40.0342C106.812 40.6519 110.549 41.98 113.916 43.9876C115.862 45.1304 117.097 46.1188 117.962 47.9719C118.796 49.7633 117.468 50.8135 114.039 57.2069C119.043 50.7826 126.95 41.177 127.722 37.0074H127.66L127.753 36.6985C127.815 36.0499 127.691 35.5557 127.29 35.2777C125.869 34.1967 120.896 36.6985 113.113 42.3816C120.031 37.0691 125.776 33.2084 129.853 31.0772C130.996 28.3593 132.293 26.1972 133.806 24.5603C135.598 22.6144 138.903 20.0818 143.783 16.9623C146.099 15.4798 147.643 14.337 148.446 13.5957C149.25 12.8544 149.805 12.0823 150.083 11.2484C150.485 10.1982 150.392 9.30255 149.805 8.56128C149.25 7.82001 148.292 7.48027 146.933 7.48027C144.956 7.48027 142.331 8.43773 139.026 10.3527L141.93 2.41495C145.729 1.05596 148.941 0.376465 151.566 0.376465C154.963 0.376465 157.373 1.30305 158.793 3.12533C160.214 4.9476 160.369 7.32584 159.318 10.26ZM89.4541 55.4773C86.7979 55.4773 58.3209 55.2919 58.3209 55.2919L68.7913 59.0909L62.7067 75.3679C62.7067 75.3679 86.3037 75.3679 89.4541 75.3679C94.4576 75.3679 98.0095 72.4955 99.492 64.1254C101.067 55.3228 92.1103 55.4773 89.4541 55.4773ZM73.8257 151.409L81.9179 151.348C83.493 149.649 85.8095 146.807 82.4429 141.835C82.4429 141.804 81.7325 147.178 73.8257 151.409ZM91.3999 90.1932C86.8287 94.8261 82.0414 99.5826 77.0378 104.401C75.9259 105.482 74.8449 106.532 73.733 107.582C75.5244 107.582 76.8216 107.582 77.3158 107.582C78.7057 107.582 81.8561 107.551 84.2961 108.787C84.9447 107.181 83.3695 104.586 83.3695 104.586C91.1219 108.478 95.0136 118.67 94.89 124.724C94.7665 131.241 91.0292 135.102 91.0292 135.102C91.0292 135.102 95.6313 132.353 96.2181 126.793C98.3184 134.144 95.2606 145.078 89.7011 149.464C103.94 145.356 114.163 134.175 113.144 115.582C112.526 103.474 104.218 95.0732 91.3999 90.1932Z" fill="#FBFFF5"/>
</svg>
